{
	"patcher" : 	{
		"fileversion" : 1,
		"appversion" : 		{
			"major" : 9,
			"minor" : 0,
			"revision" : 4,
			"architecture" : "x64",
			"modernui" : 1
		}
,
		"classnamespace" : "dsp.gen",
		"rect" : [ 59.0, 119.0, 1005.0, 589.0 ],
		"gridsize" : [ 15.0, 15.0 ],
		"boxes" : [ 			{
				"box" : 				{
					"id" : "obj-8",
					"linecount" : 4,
					"maxclass" : "comment",
					"numinlets" : 1,
					"numoutlets" : 0,
					"patching_rect" : [ 690.0, 67.0, 518.0, 60.0 ],
					"text" : "Action:\n0 - do nothing (just advance the ramp)\n1 - restart the ramp, with target/duration passed as parameters\n2 - change the ramp speed, remaining ramp duration will be scaled according to new duration"
				}

			}
, 			{
				"box" : 				{
					"id" : "obj-16",
					"maxclass" : "newobj",
					"numinlets" : 0,
					"numoutlets" : 1,
					"outlettype" : [ "" ],
					"patching_rect" : [ 650.0, 14.0, 139.0, 22.0 ],
					"text" : "param Duration @min 0."
				}

			}
, 			{
				"box" : 				{
					"id" : "obj-3",
					"maxclass" : "newobj",
					"numinlets" : 0,
					"numoutlets" : 1,
					"outlettype" : [ "" ],
					"patching_rect" : [ 450.0, 14.0, 79.0, 22.0 ],
					"text" : "param Target"
				}

			}
, 			{
				"box" : 				{
					"id" : "obj-2",
					"maxclass" : "newobj",
					"numinlets" : 0,
					"numoutlets" : 1,
					"outlettype" : [ "" ],
					"patching_rect" : [ 250.0, 14.0, 129.0, 22.0 ],
					"text" : "in 2 @comment Action"
				}

			}
, 			{
				"box" : 				{
					"id" : "obj-15",
					"maxclass" : "newobj",
					"numinlets" : 1,
					"numoutlets" : 0,
					"patching_rect" : [ 50.0, 530.0, 35.0, 22.0 ],
					"text" : "out 1"
				}

			}
, 			{
				"box" : 				{
					"code" : "line_vr(time_delta, action, target, duration) {\r\n\tHistory from(0), to(0);\r\n\tHistory time_elapsed(1), time_target(1);\r\n\t\r\n\ttime_elapsed += time_delta;\r\n\tprogress = min(time_elapsed / time_target, 1);\r\n\tcurrent_value = mix(from, to, progress);\r\n\t\r\n\tif (action == 1) {\r\n\t\tfrom = current_value;\r\n\t\tto = target;\r\n\r\n\t\tif (duration > 0) {\r\n\t\t\ttime_elapsed = 0;\r\n\t\t\ttime_target = duration;\r\n\t\t} else {\r\n\t\t\ttime_elapsed = 1;\r\n\t\t\ttime_target = 1;\r\n\t\t}\r\n\t} else if (action == 2) {\r\n\t\ttime_target = mix(time_target, duration, progress);\r\n\t}\r\n\t\r\n\treturn current_value;\r\n}\r\n\r\nout1 = line_vr(in1, in2, in3, in4);",
					"fontface" : 0,
					"fontname" : "<Monospaced>",
					"fontsize" : 12.0,
					"id" : "obj-7",
					"maxclass" : "codebox",
					"numinlets" : 4,
					"numoutlets" : 1,
					"outlettype" : [ "" ],
					"patching_rect" : [ 50.0, 59.0, 619.0, 450.0 ]
				}

			}
, 			{
				"box" : 				{
					"id" : "obj-1",
					"maxclass" : "newobj",
					"numinlets" : 0,
					"numoutlets" : 1,
					"outlettype" : [ "" ],
					"patching_rect" : [ 50.0, 14.0, 162.0, 22.0 ],
					"text" : "in 1 @comment \"Time Delta\""
				}

			}
 ],
		"lines" : [ 			{
				"patchline" : 				{
					"destination" : [ "obj-7", 0 ],
					"source" : [ "obj-1", 0 ]
				}

			}
, 			{
				"patchline" : 				{
					"destination" : [ "obj-7", 3 ],
					"source" : [ "obj-16", 0 ]
				}

			}
, 			{
				"patchline" : 				{
					"destination" : [ "obj-7", 1 ],
					"source" : [ "obj-2", 0 ]
				}

			}
, 			{
				"patchline" : 				{
					"destination" : [ "obj-7", 2 ],
					"source" : [ "obj-3", 0 ]
				}

			}
, 			{
				"patchline" : 				{
					"destination" : [ "obj-15", 0 ],
					"source" : [ "obj-7", 0 ]
				}

			}
 ],
		"originid" : "pat-41",
		"saved_attribute_attributes" : 		{
			"default_plcolor" : 			{
				"expression" : ""
			}

		}

	}

}
