{
	"patcher" : 	{
		"fileversion" : 1,
		"appversion" : 		{
			"major" : 9,
			"minor" : 0,
			"revision" : 4,
			"architecture" : "x64",
			"modernui" : 1
		}
,
		"classnamespace" : "dsp.gen",
		"rect" : [ 34.0, 100.0, 1064.0, 758.0 ],
		"gridsize" : [ 15.0, 15.0 ],
		"boxes" : [ 			{
				"box" : 				{
					"id" : "obj-17",
					"maxclass" : "newobj",
					"numinlets" : 0,
					"numoutlets" : 1,
					"outlettype" : [ "" ],
					"patching_rect" : [ 931.0, 120.0, 101.0, 22.0 ],
					"text" : "param quantize 0"
				}

			}
, 			{
				"box" : 				{
					"id" : "obj-16",
					"maxclass" : "newobj",
					"numinlets" : 0,
					"numoutlets" : 1,
					"outlettype" : [ "" ],
					"patching_rect" : [ 931.0, 75.0, 96.0, 22.0 ],
					"text" : "param reverse 0"
				}

			}
, 			{
				"box" : 				{
					"code" : "quantize(in_note) {\n\tBuffer scale(\"---scale\");\n\n\tmin_distance = 12;\n\tbest_offset = 127;\n\tfor (i = 0; i < dim(scale) && min_distance > 0.5; i += 1) {\n\t\tsd = peek(scale, i);\n\n\t\t// 12 * 100 > 127, so (12 * 100 + sd - in_note) % 12 is always positive\n\t\toffset = (12 * 100 + sd - in_note) % 12;\n\t\tif (offset >= 6) offset -= 12;\n\t\tdistance = abs(offset);\n\t\tif (distance < min_distance) {\n\t\t\tmin_distance = distance;\n\t\t\tbest_offset = offset;\n\t\t}\n\t}\n\n\treturn in_note + best_offset;\t\n}\n\nportamento = in1;\nglobal_pitch, target_pitch = in2, in3;\n\n// apply reverse\nif (reverse) {\n\tportamento = 1 - portamento;\n}\r\n\r\n// spread portamento between global envelope pitch and target pitch\r\nportamento *= (global_pitch - target_pitch);\n\n// apply amount and inversion\nportamento *= amount;\n\n// apply quantization\nif (quantize) {\n\tunquantized = portamento + target_pitch;\n\tquantized = quantize(unquantized);\n\tportamento = quantized - target_pitch;\n}\n\nout1 = portamento;\n",
					"fontface" : 0,
					"fontname" : "<Monospaced>",
					"fontsize" : 12.0,
					"id" : "obj-14",
					"maxclass" : "codebox",
					"numinlets" : 3,
					"numoutlets" : 1,
					"outlettype" : [ "" ],
					"patching_rect" : [ 45.0, 90.0, 709.0, 654.0 ]
				}

			}
, 			{
				"box" : 				{
					"id" : "obj-6",
					"maxclass" : "newobj",
					"numinlets" : 0,
					"numoutlets" : 1,
					"outlettype" : [ "" ],
					"patching_rect" : [ 390.0, 30.0, 220.0, 22.0 ],
					"text" : "in 2 @comment \"Global envelope pitch\""
				}

			}
, 			{
				"box" : 				{
					"id" : "obj-11",
					"maxclass" : "newobj",
					"numinlets" : 2,
					"numoutlets" : 1,
					"outlettype" : [ "" ],
					"patching_rect" : [ 45.0, 825.0, 64.0, 22.0 ],
					"text" : "+"
				}

			}
, 			{
				"box" : 				{
					"id" : "obj-9",
					"maxclass" : "newobj",
					"numinlets" : 1,
					"numoutlets" : 1,
					"outlettype" : [ "" ],
					"patching_rect" : [ 45.0, 780.0, 29.0, 22.0 ],
					"text" : "/ 48"
				}

			}
, 			{
				"box" : 				{
					"id" : "obj-5",
					"maxclass" : "newobj",
					"numinlets" : 0,
					"numoutlets" : 1,
					"outlettype" : [ "" ],
					"patching_rect" : [ 90.0, 780.0, 212.0, 22.0 ],
					"text" : "in 4 @comment \"Incoming pitch bend\""
				}

			}
, 			{
				"box" : 				{
					"id" : "obj-19",
					"maxclass" : "newobj",
					"numinlets" : 0,
					"numoutlets" : 1,
					"outlettype" : [ "" ],
					"patching_rect" : [ 930.0, 30.0, 96.0, 22.0 ],
					"text" : "param amount 1"
				}

			}
, 			{
				"box" : 				{
					"id" : "obj-2",
					"maxclass" : "newobj",
					"numinlets" : 0,
					"numoutlets" : 1,
					"outlettype" : [ "" ],
					"patching_rect" : [ 735.0, 30.0, 167.0, 22.0 ],
					"text" : "in 3 @comment \"Target pitch\""
				}

			}
, 			{
				"box" : 				{
					"id" : "obj-1",
					"maxclass" : "newobj",
					"numinlets" : 0,
					"numoutlets" : 1,
					"outlettype" : [ "" ],
					"patching_rect" : [ 45.0, 30.0, 229.0, 22.0 ],
					"text" : "in 1 @comment \"Normalized portamento\""
				}

			}
, 			{
				"box" : 				{
					"id" : "obj-4",
					"maxclass" : "newobj",
					"numinlets" : 1,
					"numoutlets" : 0,
					"patching_rect" : [ 45.0, 870.0, 35.0, 22.0 ],
					"text" : "out 1"
				}

			}
 ],
		"lines" : [ 			{
				"patchline" : 				{
					"destination" : [ "obj-14", 0 ],
					"source" : [ "obj-1", 0 ]
				}

			}
, 			{
				"patchline" : 				{
					"destination" : [ "obj-4", 0 ],
					"source" : [ "obj-11", 0 ]
				}

			}
, 			{
				"patchline" : 				{
					"destination" : [ "obj-9", 0 ],
					"source" : [ "obj-14", 0 ]
				}

			}
, 			{
				"patchline" : 				{
					"destination" : [ "obj-14", 2 ],
					"source" : [ "obj-2", 0 ]
				}

			}
, 			{
				"patchline" : 				{
					"destination" : [ "obj-11", 1 ],
					"source" : [ "obj-5", 0 ]
				}

			}
, 			{
				"patchline" : 				{
					"destination" : [ "obj-14", 1 ],
					"source" : [ "obj-6", 0 ]
				}

			}
, 			{
				"patchline" : 				{
					"destination" : [ "obj-11", 0 ],
					"source" : [ "obj-9", 0 ]
				}

			}
 ],
		"originid" : "pat-19276",
		"autosave" : 0
	}

}
